<svg version="1.0" xmlns="http://www.w3.org/2000/svg" width="933.333" height="933.333" viewBox="0 0 700 700"><path d="M347.3 92.2c-2.1 1-4.7 6.9-5.8 13-.7 3.9-6.1 21.6-9 29.8-3.7 10.1-3.3 20.3 1.2 30.3 3.4 7.7 3.4 7.7-1.4 23.4-3.1 10.2-2.4 9.7-13.3 10.8-10.6 1-23.4 4-37.5 8.9-24.6 8.4-39.5 16.5-66 36.1-6 4.5-13.9 10.1-17.4 12.4-7.7 5.2-23.4 12.8-23.8 11.5-1.1-3.3-4.4-8.1-6.6-9.8-2.9-2.2-9.8-2.9-13.6-1.5-3 1.2-6.9 5.6-7.7 8.7-1.2 4.5.2 11.2 3 14.1 1.4 1.5 2.6 3 2.6 3.3 0 .3-5 10.8-11.1 23.4-6.1 12.6-13.3 27.4-15.9 32.9-2.6 5.5-10.5 21.7-17.4 36-7 14.3-15.5 31.8-18.9 38.9-14.8 30.8-23.3 47.1-24.4 46.9-1.7-.4-1.6.8.3 3.7 5.5 8.2 19.9 20.1 30.8 25.4 6.3 3.1 22.8 9.3 24.6 9.3.3 0 2.8.5 5.5 1.1 9.8 2.2 12.2 2.4 31.5 2.7 12.7.2 22.3-.1 27.6-1 30.9-5 52.5-16.1 68-35.1l3.7-4.5-2.1-2.2c-1.8-1.9-14-26.2-33-65.8-3.3-6.8-10.8-22.3-16.7-34.4-5.9-12.1-12.9-26.5-15.5-32-2.6-5.5-8.5-17.6-12.9-26.9-4.5-9.3-8-17.1-7.8-17.3.5-.4 2.4-.8 8.2-1.7 13-2.1 30.6-10.7 54.3-26.6 24.6-16.4 37.2-22.8 57.7-29.1 12-3.6 27.7-6.6 34.5-6.5 4.2.1 4.3.2 4.5 3.6 1.4 18.8 4.2 33.7 9.1 48.6 1.9 5.9 3.3 11.3 3 12-.3.8 0 1.6.6 2 .9.6.7 16.3-.7 34.4-.1 2.5-.6 10.6-1 18-.3 7.4-.8 15.7-1 18.5-.2 2.7-.7 11.1-1 18.5-.4 7.4-.8 16.4-1 19.9-1.9 32.9-2.1 67.7-.6 74.5 1.1 4.5 1 5.2-1.3 8.6-2.9 4.5-3.8 10.1-2.2 14.9 1.5 4.7 1.3 9.3-1.3 22.6-3.6 18.3-3.8 21.3-2.7 42.5l.8 13.6-14.9.1c-26.6.2-23.7-.4-29.6 5.5l-5.2 5.2-7.1.2c-8.3.2-13.4 2.3-16.9 6.8-1.6 2.1-3.9 3.6-6.7 4.3-3 .8-5.8 2.7-9.2 6.3-3.7 3.8-6.2 5.4-10.4 6.6-5.2 1.5-10.2 5.1-10.2 7.3 0 1.5 8.9 1.6 133 1.4 144.4-.1 131 0 131-1.8s-4.9-5-11-7c-2.7-.9-6.7-3.6-10.2-6.9-3.4-3.2-7-5.7-9-6.1-1.8-.4-5-2.5-7.3-5-4.6-4.7-8.6-6-18-6-5.7 0-6.1-.2-8.6-3.5-5-6.8-5.8-7-27-7.3l-19.1-.2.8-14.5c1.2-22 1.1-22.6-3.2-43.5-2-9.3-2.2-16.1-.9-21 1.6-5.6 1-9.8-2.1-14.4-1.6-2.5-2.4-4.7-2-5.9 2.3-7 2.3-37.6.1-75.2-.2-3.6-.7-12.6-1-20-.7-14.7-1-20.4-2-38.3-.4-6.5-.9-14.1-1-17-1.5-26-1.7-36.7-.6-36.7.7 0 1-.8.6-1.9-.3-1 1-6.5 2.9-12.2 4.2-12.5 7.3-27.4 8.1-38.9 1-14 .6-13.3 7.8-12.6 9.4 1 17.3 2.5 26.9 5.2 23 6.4 35.9 12.6 61.4 29.5 10.9 7.3 24.9 15.6 30.9 18.5 9.5 4.6 14.4 6.2 30.7 10.2l2.8.7-4.1 8.5c-2.3 4.7-5.8 12.1-7.9 16.5-2.1 4.4-7.7 16.1-12.5 26-4.8 9.9-11.6 23.8-15 31-3.4 7.1-9.6 20-13.8 28.5-4.1 8.5-12 24.9-17.6 36.5-15.1 31.2-14.4 30-16.4 29.7-1.6-.3-1.7 0-.6 1.9 2.4 4.6 13 15.2 20.7 20.7 11.9 8.5 25.1 13.6 47.7 18.4 8.2 1.7 42.7 1.8 53 .2 24.8-4 44.1-12.3 58.5-25.2 8.9-8 15.9-17.5 11.7-15.9-1.6.6-1.6.5-13.3-23.8-10.3-21.4-20-41.5-31.9-66-4.8-9.9-11.8-24.3-15.5-32-3.7-7.7-11.3-23.4-16.9-34.9-5.5-11.4-10.1-21-10.1-21.3 0-.3 1.1-1.8 2.5-3.4 3.3-3.9 4.6-9 3.4-13.3-1.1-3.9-6.1-9.5-8.7-9.7-8.5-.6-9.5-.5-12.5 1.5-1.8 1.2-4 3.7-4.9 5.5-.9 1.9-2.1 3.8-2.5 4.2-1.5 1.5-20.4-8.7-32.8-17.7-32-23.3-35.9-25.7-55-34.5-14.5-6.7-36.9-13.7-49-15.3-2.2-.3-6.9-1-10.5-1.5-3.6-.5-6.8-.7-7.2-.5-.3.2-.9-1.4-1.3-3.6s-1.6-6.4-2.6-9.3c-3.9-10.5-4-13.2-.6-20.5 4.5-9.7 4.9-19.9 1.2-30.2-1.5-4.1-4.3-12.9-6.1-19.5-5.9-21.3-6.2-22.1-8.9-23.3-1.4-.7-2.7-1.2-2.8-1.1-.1 0-1.2.5-2.4 1.1zm-185.5 176c1.4 1.4-.2 4.8-2.4 4.8-2 0-2.9-2.7-1.4-4.5 1.5-1.8 2.2-1.9 3.8-.3zm381.2 1.9c0 2.8-3 3.6-4.7 1.3-1.2-1.6-1.2-2 .3-3.1 2.1-1.5 4.4-.6 4.4 1.8zM158 373.3v88.2h-43.9c-24.1 0-43.8-.2-43.7-.5.2-.3 1.8-3.7 3.6-7.5 1.8-3.9 7.3-15.3 12.3-25.5 4.9-10.2 12-24.8 15.7-32.5 7.2-15 16.9-34.9 32.5-67 5.3-11 12.4-25.5 15.6-32.3 3.3-6.7 6.4-12 6.9-11.7.5.3.9 36.4 1 88.8zm11.3-76.7c2.5 4.9 7.4 15 11 22.4 3.6 7.4 10.6 22 15.7 32.5 16.4 33.8 25.1 51.7 31.5 65 14.7 30.5 21.5 44.7 21.5 44.8 0 .2-86.1 0-87.1-.2-.5-.1-.5-173.7-.1-176.6.3-1.5 2.6 2.3 7.5 12.1zm379.4-2.8c5.1 10.4 24.9 51.3 34 70.2 3.6 7.4 10.1 20.8 14.4 29.7 31.1 64.2 31.8 65.7 31.8 66.8.1.6-15.1 1-43.4 1H542v-88.7c.1-69.1.3-88.6 1.3-88.2.7.3 3.1 4.4 5.4 9.2zm-10.6-1.6c.3 25.6-.2 168.2-.6 168.6-.6.6-83.5 1-85.2.4-1.2-.4.8-5.1 16.2-36.7 4.8-9.9 12-24.8 16-33 4-8.3 11.7-24 17-35 5.4-11 13.4-27.7 18-37 14.3-29.7 16.8-34.5 17.6-34.5.5 0 .9 3.3 1 7.2z"/></svg>