<svg width="62" height="62" fill="none" xmlns="http://www.w3.org/2000/svg"><path d="M1 31C1 14.431 14.431 1 31 1c16.569 0 30 13.431 30 30 0 16.569-13.431 30-30 30C14.431 61 1 47.569 1 31z" stroke="#D1B06B" stroke-width="2"/><g clip-path="url(#clip0_2_44)"><path d="M39.357 23.8H22.643a.637.637 0 00-.455.192.66.66 0 00-.188.463v13.09c0 .174.068.34.188.463s.284.192.455.192h16.714c.17 0 .334-.069.455-.192a.66.66 0 00.188-.463v-13.09a.66.66 0 00-.188-.463.637.637 0 00-.455-.192zm-7.962 8.371a.636.636 0 01-.79 0l-6.293-4.983.79-1.034L31 30.825l5.899-4.67.789 1.033-6.293 4.983z" fill="#CCAA60"/></g><defs><clipPath id="clip0_2_44"><path fill="#fff" transform="translate(22 23)" d="M0 0h18v16H0z"/></clipPath></defs></svg>