<svg width="400" height="79" fill="none" xmlns="http://www.w3.org/2000/svg"><path d="M116.215 59.22c.217 0 .325.13.325.39s-.108.39-.325.39c-.823 0-2.145-.043-3.965-.13-1.82-.087-3.142-.13-3.965-.13-1.083 0-2.362.043-3.835.13-1.473.087-2.622.13-3.445.13-.173 0-.26-.13-.26-.39s.087-.39.26-.39c1.257 0 2.167-.13 2.73-.39.607-.303.91-.78.91-1.43 0-.65-.368-1.755-1.105-3.315l-4.94-10.01H82.87l-3.12 7.02c-.563 1.3-.845 2.47-.845 3.51 0 1.517.542 2.665 1.625 3.445 1.083.78 2.6 1.17 4.55 1.17.217 0 .325.13.325.39s-.108.39-.325.39c-.78 0-1.907-.043-3.38-.13a83.034 83.034 0 00-4.29-.13c-1.17 0-2.535.043-4.095.13-1.387.087-2.535.13-3.445.13-.217 0-.325-.13-.325-.39s.108-.39.325-.39c1.213 0 2.232-.238 3.055-.715s1.625-1.322 2.405-2.535c.78-1.257 1.712-3.098 2.795-5.525L92.1 18.985c.087-.13.282-.195.585-.195s.477.065.52.195l15.925 32.11c1.517 3.12 2.773 5.265 3.77 6.435 1.04 1.127 2.145 1.69 3.315 1.69zm-32.63-16.77H97.82l-7.475-15.145-6.76 15.145zm53.426 13.39c.13 0 .238.087.325.26.13.173.13.303 0 .39-1.603 1.517-3.12 2.622-4.55 3.315a10.87 10.87 0 01-4.55.975c-1.863 0-3.445-.433-4.745-1.3-1.257-.91-1.885-2.405-1.885-4.485v-14.69c0-1.43-.238-2.383-.715-2.86-.433-.477-1.3-.715-2.6-.715-.043 0-.108-.043-.195-.13a1.236 1.236 0 01-.065-.39.73.73 0 01.065-.325c.087-.13.152-.195.195-.195 4.073-.173 6.63-1.928 7.67-5.265.087-.173.26-.26.52-.26.303 0 .455.087.455.26v5.135c2.037-.043 4.918-.26 8.645-.65.087 0 .173.173.26.52.13.303.195.65.195 1.04s-.087.78-.26 1.17c-.13.39-.282.563-.455.52-2.427-.563-5.222-.91-8.385-1.04v15.73c0 1.69.412 2.947 1.235 3.77.867.78 2.058 1.17 3.575 1.17 1.82 0 3.532-.628 5.135-1.885l.13-.065zm21.899 0c.13 0 .239.087.325.26.13.173.13.303 0 .39-1.603 1.517-3.12 2.622-4.55 3.315-1.43.65-2.946.975-4.55.975-1.863 0-3.445-.433-4.745-1.3-1.256-.91-1.885-2.405-1.885-4.485v-14.69c0-1.43-.238-2.383-.715-2.86-.433-.477-1.3-.715-2.6-.715-.043 0-.108-.043-.195-.13a1.236 1.236 0 01-.065-.39.73.73 0 01.065-.325c.087-.13.152-.195.195-.195 4.074-.173 6.63-1.928 7.67-5.265.087-.173.26-.26.52-.26.304 0 .455.087.455.26v5.135c2.037-.043 4.919-.26 8.645-.65.087 0 .174.173.26.52.13.303.195.65.195 1.04s-.086.78-.26 1.17c-.13.39-.281.563-.455.52-2.426-.563-5.221-.91-8.385-1.04v15.73c0 1.69.412 2.947 1.235 3.77.867.78 2.059 1.17 3.575 1.17 1.82 0 3.532-.628 5.135-1.885l.13-.065zm16.375 5.005c-2.6 0-4.897-.607-6.89-1.82a12.813 12.813 0 01-4.615-5.005c-1.084-2.123-1.625-4.42-1.625-6.89 0-2.817.693-5.2 2.08-7.15 1.43-1.993 3.228-3.467 5.395-4.42 2.21-.997 4.463-1.495 6.76-1.495 2.643 0 4.94.628 6.89 1.885 1.993 1.257 3.51 2.925 4.55 5.005 1.04 2.037 1.56 4.225 1.56 6.565 0 2.6-.65 4.918-1.95 6.955-1.257 2.037-2.969 3.618-5.135 4.745-2.167 1.083-4.507 1.625-7.02 1.625zm1.95-1.3c1.906 0 3.358-.845 4.355-2.535 1.04-1.69 1.56-4.16 1.56-7.41 0-2.903-.412-5.438-1.235-7.605-.78-2.167-1.864-3.813-3.25-4.94-1.344-1.127-2.817-1.69-4.42-1.69-1.95 0-3.424.802-4.42 2.405-.997 1.603-1.495 3.965-1.495 7.085 0 2.817.368 5.352 1.105 7.605.78 2.21 1.841 3.943 3.185 5.2 1.386 1.257 2.925 1.885 4.615 1.885zm33.301-25.285c.997 0 1.95.325 2.86.975.91.65 1.365 1.43 1.365 2.34 0 .823-.26 1.495-.78 2.015-.477.52-1.148.78-2.015.78-.563 0-1.04-.108-1.43-.325a7.91 7.91 0 01-1.105-1.04c-.39-.39-.737-.672-1.04-.845-.303-.217-.672-.325-1.105-.325-.477 0-.997.195-1.56.585-.52.347-1.343 1.105-2.47 2.275v14.04c0 1.213.173 2.145.52 2.795.347.607.932 1.04 1.755 1.3.823.26 2.037.39 3.64.39.173 0 .26.13.26.39s-.087.39-.26.39a72.72 72.72 0 01-3.445-.065l-5.135-.065-3.77.065a37.88 37.88 0 01-2.535.065c-.13 0-.195-.13-.195-.39s.065-.39.195-.39c1.473 0 2.448-.303 2.925-.91.477-.607.715-1.798.715-3.575V42.32c0-1.387-.173-2.405-.52-3.055-.303-.65-.823-.975-1.56-.975-.65 0-1.733.325-3.25.975h-.065c-.173 0-.303-.108-.39-.325-.087-.217-.065-.347.065-.39l8.515-4.16c.26-.087.412-.13.455-.13.433 0 .867.477 1.3 1.43.433.91.693 2.123.78 3.64 1.69-1.907 3.098-3.228 4.225-3.965 1.127-.737 2.145-1.105 3.055-1.105zm38.157 24.96c.13 0 .195.13.195.39s-.065.39-.195.39c-1.084 0-1.929-.022-2.535-.065l-3.77-.065-3.705.065c-.65.043-1.517.065-2.6.065-.13 0-.195-.13-.195-.39s.065-.39.195-.39c1.473 0 2.448-.303 2.925-.91.476-.607.715-1.798.715-3.575v-9.75c0-2.427-.455-4.203-1.365-5.33-.867-1.17-2.254-1.755-4.16-1.755-1.127 0-2.275.26-3.445.78a11.872 11.872 0 00-3.185 2.08v13.975c0 1.777.238 2.968.715 3.575.476.607 1.451.91 2.925.91.13 0 .195.13.195.39s-.065.39-.195.39c-1.084 0-1.929-.022-2.535-.065l-3.77-.065-3.77.065a37.88 37.88 0 01-2.535.065c-.13 0-.195-.13-.195-.39s.065-.39.195-.39c1.473 0 2.448-.303 2.925-.91.476-.607.715-1.798.715-3.575V42.32c0-1.387-.174-2.405-.52-3.055-.304-.65-.824-.975-1.56-.975-.65 0-1.734.325-3.25.975h-.065c-.174 0-.304-.108-.39-.325-.087-.217-.065-.347.065-.39l8.515-4.16c.26-.087.411-.13.455-.13.433 0 .866.498 1.3 1.495.476.953.736 2.21.78 3.77 3.033-3.597 6.326-5.395 9.88-5.395 2.383 0 4.246.737 5.59 2.21 1.343 1.43 2.015 3.38 2.015 5.85v12.545c0 1.777.238 2.968.715 3.575.476.607 1.451.91 2.925.91zm25.898-3.315c.087 0 .173.087.26.26.13.173.152.303.065.39-1.603 1.473-3.207 2.557-4.81 3.25-1.603.65-3.337.975-5.2.975-2.643 0-4.94-.585-6.89-1.755-1.907-1.17-3.38-2.708-4.42-4.615-.997-1.907-1.495-3.965-1.495-6.175 0-2.557.628-4.897 1.885-7.02a13.56 13.56 0 015.135-5.005c2.21-1.257 4.658-1.885 7.345-1.885 2.6 0 4.615.628 6.045 1.885 1.43 1.257 2.145 3.12 2.145 5.59 0 1.257-.26 1.885-.78 1.885l-15.86.065c-.043.39-.065.975-.065 1.755 0 3.813.867 6.847 2.6 9.1 1.777 2.21 4.29 3.315 7.54 3.315 1.213 0 2.232-.13 3.055-.39.823-.303 1.928-.823 3.315-1.56l.13-.065zm-10.465-20.28c-1.603 0-2.925.628-3.965 1.885-.997 1.213-1.668 2.903-2.015 5.07l10.4-.195c-.087-4.507-1.56-6.76-4.42-6.76zm41.278-.715c.086 0 .13.13.13.39s-.044.39-.13.39c-1.3 0-2.427.52-3.38 1.56-.91 1.04-1.755 2.622-2.535 4.745l-7.475 19.825c-1.56 4.16-3.055 7.432-4.485 9.815-1.43 2.383-2.882 4.073-4.355 5.07-1.474 1.04-3.099 1.56-4.875 1.56-1.214 0-2.145-.26-2.795-.78-.694-.477-1.04-1.213-1.04-2.21 0-.867.281-1.538.845-2.015.52-.433 1.17-.65 1.95-.65.52 0 .953.065 1.3.195.39.173.78.39 1.17.65.433.26.801.455 1.105.585.346.13.758.195 1.235.195.996 0 1.906-.412 2.73-1.235.866-.78 1.755-2.102 2.665-3.965.953-1.863 2.08-4.507 3.38-7.93l-10.27-20.8c-.954-1.863-1.712-3.098-2.275-3.705-.52-.607-1.17-.91-1.95-.91-.13 0-.195-.13-.195-.39s.065-.39.195-.39c1.126 0 1.993.022 2.6.065l2.535.065 4.42-.065c.65-.043 1.538-.065 2.665-.065.13 0 .195.13.195.39s-.065.39-.195.39c-1.17 0-2.037.108-2.6.325-.52.173-.78.52-.78 1.04 0 .39.108.78.325 1.17l7.93 16.38 4.355-12.61c.39-1.127.585-2.08.585-2.86 0-2.297-1.452-3.445-4.355-3.445-.087 0-.13-.13-.13-.39s.043-.39.13-.39c1.17 0 2.058.022 2.665.065l3.9.065 2.535-.065c.476-.043 1.235-.065 2.275-.065zm6.739 3.38c0 1.343.455 2.47 1.365 3.38.954.91 2.319 1.863 4.095 2.86 1.56.867 2.752 1.582 3.575 2.145.867.563 1.604 1.322 2.21 2.275.65.953.975 2.102.975 3.445a7.952 7.952 0 01-1.105 4.095c-.736 1.257-1.841 2.275-3.315 3.055-1.43.78-3.141 1.17-5.135 1.17-2.383 0-4.571-.607-6.565-1.82-.26-.26-.39-.52-.39-.78l-.13-5.98c0-.13.109-.195.325-.195.26-.043.412-.022.455.065.737 2.167 1.842 3.943 3.315 5.33 1.517 1.387 3.12 2.08 4.81 2.08 1.084 0 1.929-.282 2.535-.845.607-.563.91-1.408.91-2.535 0-1.647-.476-2.947-1.43-3.9-.953-.997-2.34-1.972-4.16-2.925-1.473-.78-2.621-1.43-3.445-1.95-.823-.563-1.538-1.3-2.145-2.21-.563-.953-.845-2.123-.845-3.51 0-2.47.889-4.312 2.665-5.525 1.82-1.213 4.009-1.82 6.565-1.82 1.69 0 3.424.325 5.2.975.39.173.585.412.585.715 0 .997-.021 1.777-.065 2.34l-.065 3.12c0 .13-.13.195-.39.195s-.39-.065-.39-.195c0-.867-.346-1.755-1.04-2.665a8.183 8.183 0 00-2.665-2.34c-1.083-.607-2.188-.91-3.315-.91-1.993 0-2.99.953-2.99 2.86zm35.42 17.55c.13 0 .238.087.325.26.13.173.13.303 0 .39-1.604 1.517-3.12 2.622-4.55 3.315a10.87 10.87 0 01-4.55.975c-1.864 0-3.445-.433-4.745-1.3-1.257-.91-1.885-2.405-1.885-4.485v-14.69c0-1.43-.239-2.383-.715-2.86-.434-.477-1.3-.715-2.6-.715-.044 0-.109-.043-.195-.13a1.209 1.209 0 01-.065-.39c0-.13.021-.238.065-.325.086-.13.151-.195.195-.195 4.073-.173 6.63-1.928 7.67-5.265.086-.173.26-.26.52-.26.303 0 .455.087.455.26v5.135c2.036-.043 4.918-.26 8.645-.65.086 0 .173.173.26.52.13.303.195.65.195 1.04s-.087.78-.26 1.17c-.13.39-.282.563-.455.52-2.427-.563-5.222-.91-8.385-1.04v15.73c0 1.69.411 2.947 1.235 3.77.866.78 2.058 1.17 3.575 1.17 1.82 0 3.531-.628 5.135-1.885l.13-.065zm25.734.065c.087 0 .173.087.26.26.13.173.152.303.065.39-1.603 1.473-3.207 2.557-4.81 3.25-1.603.65-3.337.975-5.2.975-2.643 0-4.94-.585-6.89-1.755-1.907-1.17-3.38-2.708-4.42-4.615-.997-1.907-1.495-3.965-1.495-6.175 0-2.557.628-4.897 1.885-7.02a13.56 13.56 0 015.135-5.005c2.21-1.257 4.658-1.885 7.345-1.885 2.6 0 4.615.628 6.045 1.885 1.43 1.257 2.145 3.12 2.145 5.59 0 1.257-.26 1.885-.78 1.885l-15.86.065c-.043.39-.065.975-.065 1.755 0 3.813.867 6.847 2.6 9.1 1.777 2.21 4.29 3.315 7.54 3.315 1.213 0 2.232-.13 3.055-.39.823-.303 1.928-.823 3.315-1.56l.13-.065zm-10.465-20.28c-1.603 0-2.925.628-3.965 1.885-.997 1.213-1.668 2.903-2.015 5.07l10.4-.195c-.087-4.507-1.56-6.76-4.42-6.76zm31.723-1.365c.996 0 1.95.325 2.86.975.91.65 1.365 1.43 1.365 2.34 0 .823-.26 1.495-.78 2.015-.477.52-1.149.78-2.015.78-.564 0-1.04-.108-1.43-.325a7.91 7.91 0 01-1.105-1.04c-.39-.39-.737-.672-1.04-.845-.304-.217-.672-.325-1.105-.325-.477 0-.997.195-1.56.585-.52.347-1.344 1.105-2.47 2.275v14.04c0 1.213.173 2.145.52 2.795.346.607.931 1.04 1.755 1.3.823.26 2.036.39 3.64.39.173 0 .26.13.26.39s-.087.39-.26.39a72.69 72.69 0 01-3.445-.065l-5.135-.065-3.77.065a37.88 37.88 0 01-2.535.065c-.13 0-.195-.13-.195-.39s.065-.39.195-.39c1.473 0 2.448-.303 2.925-.91.476-.607.715-1.798.715-3.575V42.32c0-1.387-.174-2.405-.52-3.055-.304-.65-.824-.975-1.56-.975-.65 0-1.734.325-3.25.975h-.065c-.174 0-.304-.108-.39-.325-.087-.217-.065-.347.065-.39l8.515-4.16c.26-.087.411-.13.455-.13.433 0 .866.477 1.3 1.43.433.91.693 2.123.78 3.64 1.69-1.907 3.098-3.228 4.225-3.965 1.126-.737 2.145-1.105 3.055-1.105z" fill="#fff"/><path d="M58.44 23.824c0-4.136-3.431-7.488-7.663-7.488H9.663C5.43 16.336 2 19.688 2 23.824" stroke="url(#paint0_radial_2_11)" stroke-width="3.5" stroke-miterlimit="10"/><path d="M4 61.695c0 4.002 3.252 7.246 7.263 7.246H50.23c4.012 0 7.264-3.245 7.264-7.246" stroke="url(#paint1_radial_2_11)" stroke-width="3.5" stroke-miterlimit="10"/><path d="M18.578 27H15v30.727h3.578V27z" fill="url(#paint2_radial_2_11)"/><path d="M25.232 27h-3.579v30.727h3.579V27z" fill="url(#paint3_radial_2_11)"/><path d="M32.01 27h-3.578v30.727h3.578V27z" fill="url(#paint4_radial_2_11)"/><path d="M38.6 27h-3.578v30.727H38.6V27z" fill="url(#paint5_radial_2_11)"/><path d="M45.349 27H41.77v30.727h3.578V27z" fill="url(#paint6_radial_2_11)"/><path d="M18.578 73.592H15V79h3.578v-5.408z" fill="url(#paint7_radial_2_11)"/><path d="M25.232 73.592h-3.579V79h3.579v-5.408z" fill="url(#paint8_radial_2_11)"/><path d="M32.01 73.592h-3.578V79h3.579v-5.408z" fill="url(#paint9_radial_2_11)"/><path d="M38.602 73.592h-3.578V79h3.578v-5.408z" fill="url(#paint10_radial_2_11)"/><path d="M45.349 73.592h-3.578V79h3.578v-5.408z" fill="url(#paint11_radial_2_11)"/><path d="M25.23 1h-3.578v5.408h3.578V1z" fill="url(#paint12_radial_2_11)"/><path d="M32.01 1h-3.578v5.408h3.578V1z" fill="url(#paint13_radial_2_11)"/><path d="M38.6 1h-3.578v5.408H38.6V1z" fill="url(#paint14_radial_2_11)"/><path d="M48.486 24.57V21H13v3.57h35.486z" fill="url(#paint15_radial_2_11)"/><path d="M48 64.37V60.8H12.514v3.57H48z" fill="url(#paint16_radial_2_11)"/><path d="M48 11.844v-3.57H12.514v3.57H48z" fill="url(#paint17_radial_2_11)"/><defs><radialGradient id="paint0_radial_2_11" cx="0" cy="0" r="1" gradientUnits="userSpaceOnUse" gradientTransform="matrix(0 3.7437 -28.22 0 30.22 20.08)"><stop stop-color="#DBBC80"/><stop offset="1" stop-color="#AB8219"/></radialGradient><radialGradient id="paint1_radial_2_11" cx="0" cy="0" r="1" gradientUnits="userSpaceOnUse" gradientTransform="matrix(0 3.62271 -26.7464 0 30.746 65.318)"><stop stop-color="#DBBC80"/><stop offset="1" stop-color="#AB8219"/></radialGradient><radialGradient id="paint2_radial_2_11" cx="0" cy="0" r="1" gradientUnits="userSpaceOnUse" gradientTransform="matrix(0 15.3636 -1.78911 0 16.79 42.364)"><stop stop-color="#DBBC80"/><stop offset="1" stop-color="#AB8219"/></radialGradient><radialGradient id="paint3_radial_2_11" cx="0" cy="0" r="1" gradientUnits="userSpaceOnUse" gradientTransform="matrix(0 15.3636 -1.78911 0 23.443 42.364)"><stop stop-color="#DBBC80"/><stop offset="1" stop-color="#AB8219"/></radialGradient><radialGradient id="paint4_radial_2_11" cx="0" cy="0" r="1" gradientUnits="userSpaceOnUse" gradientTransform="matrix(0 15.3636 -1.78911 0 30.221 42.364)"><stop stop-color="#DBBC80"/><stop offset="1" stop-color="#AB8219"/></radialGradient><radialGradient id="paint5_radial_2_11" cx="0" cy="0" r="1" gradientUnits="userSpaceOnUse" gradientTransform="matrix(0 15.3636 -1.78911 0 36.811 42.364)"><stop stop-color="#DBBC80"/><stop offset="1" stop-color="#AB8219"/></radialGradient><radialGradient id="paint6_radial_2_11" cx="0" cy="0" r="1" gradientUnits="userSpaceOnUse" gradientTransform="matrix(0 15.3636 -1.78911 0 43.56 42.364)"><stop stop-color="#DBBC80"/><stop offset="1" stop-color="#AB8219"/></radialGradient><radialGradient id="paint7_radial_2_11" cx="0" cy="0" r="1" gradientUnits="userSpaceOnUse" gradientTransform="matrix(0 2.70411 -1.78911 0 16.79 76.296)"><stop stop-color="#DBBC80"/><stop offset="1" stop-color="#AB8219"/></radialGradient><radialGradient id="paint8_radial_2_11" cx="0" cy="0" r="1" gradientUnits="userSpaceOnUse" gradientTransform="matrix(0 2.70411 -1.78911 0 23.443 76.296)"><stop stop-color="#DBBC80"/><stop offset="1" stop-color="#AB8219"/></radialGradient><radialGradient id="paint9_radial_2_11" cx="0" cy="0" r="1" gradientUnits="userSpaceOnUse" gradientTransform="matrix(0 2.70411 -1.78911 0 30.221 76.296)"><stop stop-color="#DBBC80"/><stop offset="1" stop-color="#AB8219"/></radialGradient><radialGradient id="paint10_radial_2_11" cx="0" cy="0" r="1" gradientUnits="userSpaceOnUse" gradientTransform="matrix(0 2.70411 -1.78911 0 36.813 76.296)"><stop stop-color="#DBBC80"/><stop offset="1" stop-color="#AB8219"/></radialGradient><radialGradient id="paint11_radial_2_11" cx="0" cy="0" r="1" gradientUnits="userSpaceOnUse" gradientTransform="matrix(0 2.70411 -1.78911 0 43.56 76.296)"><stop stop-color="#DBBC80"/><stop offset="1" stop-color="#AB8219"/></radialGradient><radialGradient id="paint12_radial_2_11" cx="0" cy="0" r="1" gradientUnits="userSpaceOnUse" gradientTransform="matrix(0 2.70411 -1.78911 0 23.44 3.704)"><stop stop-color="#DBBC80"/><stop offset="1" stop-color="#AB8219"/></radialGradient><radialGradient id="paint13_radial_2_11" cx="0" cy="0" r="1" gradientUnits="userSpaceOnUse" gradientTransform="matrix(0 2.70411 -1.78911 0 30.221 3.704)"><stop stop-color="#DBBC80"/><stop offset="1" stop-color="#AB8219"/></radialGradient><radialGradient id="paint14_radial_2_11" cx="0" cy="0" r="1" gradientUnits="userSpaceOnUse" gradientTransform="matrix(0 2.70411 -1.78911 0 36.811 3.704)"><stop stop-color="#DBBC80"/><stop offset="1" stop-color="#AB8219"/></radialGradient><radialGradient id="paint15_radial_2_11" cx="0" cy="0" r="1" gradientUnits="userSpaceOnUse" gradientTransform="matrix(-17.7432 0 0 -1.78468 30.743 22.785)"><stop stop-color="#DBBC80"/><stop offset="1" stop-color="#AB8219"/></radialGradient><radialGradient id="paint16_radial_2_11" cx="0" cy="0" r="1" gradientUnits="userSpaceOnUse" gradientTransform="matrix(-17.7432 0 0 -1.78469 30.257 62.585)"><stop stop-color="#DBBC80"/><stop offset="1" stop-color="#AB8219"/></radialGradient><radialGradient id="paint17_radial_2_11" cx="0" cy="0" r="1" gradientUnits="userSpaceOnUse" gradientTransform="matrix(-17.7432 0 0 -1.78468 30.257 10.06)"><stop stop-color="#DBBC80"/><stop offset="1" stop-color="#AB8219"/></radialGradient></defs></svg>